<svg width="24" height="24" viewBox="0 0 24 24" fill="none" xmlns="http://www.w3.org/2000/svg">
<mask id="mask0_36_5846" style="mask-type:alpha" maskUnits="userSpaceOnUse" x="0" y="0" width="24" height="24">
<rect width="24" height="24" fill="#D9D9D9"/>
</mask>
<g mask="url(#mask0_36_5846)">
<path d="M3.3077 20.5C2.80257 20.5 2.375 20.325 2.025 19.975C1.675 19.625 1.5 19.1974 1.5 18.6923V7.3077C1.5 6.80257 1.675 6.375 2.025 6.025C2.375 5.675 2.80257 5.5 3.3077 5.5H6.36153L8.21153 3.5H13.8077V4.99998H8.86535L7.03075 6.99998H3.3077C3.21795 6.99998 3.14423 7.02883 3.08653 7.08653C3.02883 7.14423 2.99998 7.21795 2.99998 7.3077V18.6923C2.99998 18.782 3.02883 18.8557 3.08653 18.9134C3.14423 18.9711 3.21795 19 3.3077 19H18.6923C18.782 19 18.8557 18.9711 18.9134 18.9134C18.9711 18.8557 19 18.782 19 18.6923V10.1923H20.5V18.6923C20.5 19.1974 20.325 19.625 19.975 19.975C19.625 20.325 19.1974 20.5 18.6923 20.5H3.3077ZM19 6.99998V4.99998H17V3.5H19V1.5H20.5V3.5H22.5V4.99998H20.5V6.99998H19ZM11 17.1153C12.1474 17.1153 13.1202 16.7163 13.9182 15.9182C14.7163 15.1202 15.1153 14.1474 15.1153 13C15.1153 11.8525 14.7163 10.8798 13.9182 10.0817C13.1202 9.28366 12.1474 8.88463 11 8.88463C9.85254 8.88463 8.87979 9.28366 8.08173 10.0817C7.28366 10.8798 6.88462 11.8525 6.88462 13C6.88462 14.1474 7.28366 15.1202 8.08173 15.9182C8.87979 16.7163 9.85254 17.1153 11 17.1153ZM11 15.6154C10.2615 15.6154 9.64099 15.3641 9.13843 14.8615C8.63586 14.359 8.38458 13.7384 8.38458 13C8.38458 12.2615 8.63586 11.641 9.13843 11.1384C9.64099 10.6359 10.2615 10.3846 11 10.3846C11.7384 10.3846 12.359 10.6359 12.8615 11.1384C13.3641 11.641 13.6154 12.2615 13.6154 13C13.6154 13.7384 13.3641 14.359 12.8615 14.8615C12.359 15.3641 11.7384 15.6154 11 15.6154Z" fill="#333333"/>
</g>
</svg>
