<svg width="20" height="20" viewBox="0 0 20 20" fill="none" xmlns="http://www.w3.org/2000/svg">
<mask id="mask0_36_3552" style="mask-type:alpha" maskUnits="userSpaceOnUse" x="0" y="0" width="20" height="20">
<rect width="20" height="20" fill="#D9D9D9"/>
</mask>
<g mask="url(#mask0_36_3552)">
<path d="M6.90109 13.9155L10 10.8166L13.0989 13.9155L13.9155 13.0989L10.8166 10L13.9155 6.90109L13.0989 6.08454L10 9.18345L6.90109 6.08454L6.08454 6.90109L9.18345 10L6.08454 13.0989L6.90109 13.9155ZM10.0015 18C8.90497 18 7.87051 17.7918 6.89808 17.3754C5.92564 16.959 5.07448 16.386 4.34462 15.6565C3.61474 14.9269 3.0415 14.0762 2.6249 13.1042C2.2083 12.1322 2 11.098 2 10.0015C2 8.89032 2.20821 7.85219 2.62462 6.88709C3.04103 5.92197 3.614 5.07449 4.34352 4.34462C5.07306 3.61475 5.92383 3.04151 6.89582 2.6249C7.86779 2.2083 8.90203 2 9.99853 2C11.1097 2 12.1478 2.20821 13.1129 2.62462C14.078 3.04103 14.9255 3.614 15.6554 4.34352C16.3853 5.07306 16.9585 5.92017 17.3751 6.88483C17.7917 7.84947 18 8.88737 18 9.99853C18 11.095 17.7918 12.1295 17.3754 13.1019C16.959 14.0744 16.386 14.9255 15.6565 15.6554C14.9269 16.3853 14.0798 16.9585 13.1152 17.3751C12.1505 17.7917 11.1126 18 10.0015 18Z" fill="#333333"/>
</g>
</svg>
