<svg width="20" height="21" viewBox="0 0 20 21" fill="none" xmlns="http://www.w3.org/2000/svg">
<mask id="mask0_27_2463" style="mask-type:alpha" maskUnits="userSpaceOnUse" x="0" y="0" width="20" height="21">
<rect y="0.395508" width="20" height="20" fill="#D9D9D9"/>
</mask>
<g mask="url(#mask0_27_2463)">
<path d="M5.0003 15.9786C4.00139 15.9786 3.15444 15.6271 2.45945 14.9242C1.76448 14.2212 1.41699 13.3702 1.41699 12.3713C1.41699 11.3798 1.7781 10.5254 2.50033 9.80799C3.22255 9.09059 4.08312 8.74257 5.08205 8.76395C5.32137 7.61544 5.89562 6.66965 6.8048 5.9266C7.71399 5.18354 8.77915 4.81201 10.0003 4.81201C11.3133 4.81201 12.4576 5.25459 13.433 6.13974C14.4084 7.02488 14.9586 8.11007 15.0836 9.39532V9.81201H15.34C16.2321 9.76928 16.9957 10.0495 17.6309 10.6526C18.266 11.2557 18.5836 12.0032 18.5836 12.8953C18.5836 13.7554 18.2847 14.4842 17.687 15.082C17.0892 15.6798 16.3603 15.9786 15.5003 15.9786H5.0003ZM5.0003 14.8953H15.5003C16.0559 14.8953 16.5281 14.7009 16.917 14.312C17.3059 13.9231 17.5003 13.4509 17.5003 12.8953C17.5003 12.3398 17.3059 11.8675 16.917 11.4787C16.5281 11.0898 16.0559 10.8953 15.5003 10.8953H14.1253L14.0003 9.54116C13.9031 8.51338 13.4725 7.6488 12.7086 6.94741C11.9447 6.24602 11.042 5.89532 10.0003 5.89532C9.11142 5.89532 8.3128 6.16269 7.60447 6.69741C6.89614 7.23213 6.42392 7.93699 6.1878 8.81199L5.89614 9.83282L4.83364 9.89532C4.16697 9.93699 3.61142 10.1974 3.16697 10.6766C2.72253 11.1557 2.5003 11.7287 2.5003 12.3953C2.5003 13.0898 2.74336 13.68 3.22947 14.1662C3.71558 14.6523 4.30586 14.8953 5.0003 14.8953Z" fill="#333333"/>
</g>
</svg>
