<svg width="24" height="24" viewBox="0 0 24 24" fill="none" xmlns="http://www.w3.org/2000/svg">
<mask id="mask0_2_1971" style="mask-type:alpha" maskUnits="userSpaceOnUse" x="0" y="0" width="24" height="24">
<rect width="24" height="24" fill="#D9D9D9"/>
</mask>
<g mask="url(#mask0_2_1971)">
<path d="M5.15425 19H6.39077L15.6504 9.74036L14.4139 8.50381L5.15425 17.7635V19ZM18.858 8.65576L15.4831 5.31158L16.787 4.00776C17.0806 3.71417 17.4376 3.56738 17.8581 3.56738C18.2786 3.56738 18.6356 3.71417 18.9292 4.00776L20.1465 5.22503C20.4401 5.51862 20.592 5.87053 20.6023 6.28078C20.6125 6.69103 20.4709 7.04295 20.1773 7.33653L18.858 8.65576ZM17.7735 9.75573L7.02922 20.5H3.6543V17.125L14.3985 6.38078L17.7735 9.75573Z" fill="#333333"/>
</g>
</svg>
