<svg width="24" height="24" viewBox="0 0 24 24" fill="none" xmlns="http://www.w3.org/2000/svg">
<mask id="mask0_2_347" style="mask-type:alpha" maskUnits="userSpaceOnUse" x="0" y="0" width="24" height="24">
<rect width="24" height="24" fill="#D9D9D9"/>
</mask>
<g mask="url(#mask0_2_347)">
<path d="M4.92782 20.5122C4.42268 20.5122 3.99512 20.3372 3.64512 19.9872C3.29512 19.6372 3.12012 19.2096 3.12012 18.7045V5.31998C3.12012 4.81485 3.29512 4.38728 3.64512 4.03728C3.99512 3.68728 4.42268 3.51228 4.92782 3.51228H13.4682L11.9682 5.01225H4.92782C4.85088 5.01225 4.78036 5.0443 4.71624 5.1084C4.65214 5.17252 4.62009 5.24305 4.62009 5.31998V18.7045C4.62009 18.7815 4.65214 18.852 4.71624 18.9161C4.78036 18.9802 4.85088 19.0123 4.92782 19.0123H18.3124C18.3893 19.0123 18.4598 18.9802 18.5239 18.9161C18.588 18.852 18.6201 18.7815 18.6201 18.7045V11.6488L20.1201 10.1488V18.7045C20.1201 19.2097 19.9451 19.6372 19.5951 19.9872C19.2451 20.3372 18.8175 20.5122 18.3124 20.5122L4.92782 20.5122ZM16.1509 3.93343L17.2297 4.98725L10.6201 11.5873V13.0123H12.0201L18.6643 6.38725L19.7239 7.43145L12.6681 14.5122H9.12012V10.9642L16.1509 3.93343ZM19.7239 7.43145L16.1509 3.93343L18.4393 1.64498C18.7945 1.28986 19.2255 1.1123 19.7326 1.1123C20.2396 1.1123 20.6656 1.29307 21.0105 1.6546L21.9874 2.63725C22.3322 2.98854 22.5047 3.41194 22.5047 3.90745C22.5047 4.40295 22.329 4.82635 21.9777 5.17763L19.7239 7.43145Z" fill="#333333"/>
</g>
</svg>
