<svg width="24" height="24" viewBox="0 0 24 24" fill="none" xmlns="http://www.w3.org/2000/svg">
<mask id="mask0_2_1801" style="mask-type:alpha" maskUnits="userSpaceOnUse" x="0" y="0" width="24" height="24">
<rect width="24" height="24" fill="#D9D9D9"/>
</mask>
<g mask="url(#mask0_2_1801)">
<path d="M11.25 20.75V18.75H9.25V17.25H11.25V14.6884C9.95257 14.5 8.87821 13.9125 8.02692 12.9259C7.17564 11.9394 6.75 10.7872 6.75 9.4692C6.75 8.01677 7.26186 6.78379 8.28558 5.77028C9.30928 4.75676 10.5474 4.25 12 4.25C13.4525 4.25 14.6907 4.75676 15.7144 5.77028C16.7381 6.78379 17.25 8.01677 17.25 9.4692C17.25 10.7872 16.8243 11.9394 15.973 12.9259C15.1217 13.9125 14.0474 14.5 12.7499 14.6884V17.25H14.75V18.75H12.7499V20.75H11.25ZM12.0015 13.25C13.0377 13.25 13.9215 12.8838 14.6529 12.1513C15.3843 11.4189 15.75 10.5346 15.75 9.49843C15.75 8.46228 15.3838 7.57849 14.6513 6.84708C13.9189 6.11566 13.0346 5.74995 11.9984 5.74995C10.9623 5.74995 10.0785 6.11618 9.34707 6.84863C8.61566 7.58108 8.24995 8.46538 8.24995 9.50153C8.24995 10.5377 8.61618 11.4215 9.34863 12.1529C10.0811 12.8843 10.9654 13.25 12.0015 13.25Z" fill="#FFA553"/>
</g>
</svg>
