<svg width="72" height="24" viewBox="0 0 72 24" fill="none" xmlns="http://www.w3.org/2000/svg">
<path d="M10.2255 7.37783V5.26721H7.43753V3.29865H4.78796V5.26721H2V7.37783H10.2255Z" fill="#FF630F"/>
<path fill-rule="evenodd" clip-rule="evenodd" d="M2.61295 14.5012C2.95568 15.1506 3.43021 15.6613 4.03658 16.0334C4.64295 16.4055 5.30208 16.5915 6.09299 16.5915C6.8839 16.5915 7.58254 16.4055 8.18891 16.0334C8.79527 15.6613 9.2665 15.1472 9.60264 14.491C9.83789 14.0318 9.99082 13.5278 10.0614 12.9791H11.3328V19.7777H13.8044V3.21747H11.3328V10.7467H9.8993C9.822 10.4881 9.72311 10.2411 9.60264 10.006C9.2665 9.34977 8.79527 8.83902 8.18891 8.47372C7.58254 8.10842 6.85754 7.92577 6.09299 7.92577C5.32844 7.92577 4.64295 8.10842 4.03658 8.47372C3.43021 8.83902 2.95568 9.34977 2.61295 10.006C2.27022 10.6621 2.09888 11.3961 2.09888 12.2485C2.09888 13.1008 2.27022 13.8517 2.61295 14.5012ZM7.69458 12.2688C7.69458 12.9047 7.54626 13.4154 7.24966 13.801C6.95307 14.1866 6.58729 14.3794 6.11274 14.3794C5.63819 14.3794 5.25593 14.1866 4.96592 13.801C4.67592 13.4154 4.5309 12.9182 4.5309 12.2688C4.5309 11.6194 4.67262 11.1018 4.95603 10.7163C5.23944 10.3307 5.63819 10.1379 6.11274 10.1379C6.58729 10.1379 6.96956 10.3307 7.25956 10.7163C7.54956 11.1018 7.69458 11.6329 7.69458 12.2688Z" fill="#FF630F"/>
<path d="M17.3239 20.5895V2.93335H14.793V20.5895H17.3239Z" fill="#FF630F"/>
<path fill-rule="evenodd" clip-rule="evenodd" d="M19.9124 12.519C20.3611 13.3203 20.9789 13.9466 21.7658 14.3977C22.5527 14.8489 23.4708 15.0745 24.4786 15.0745C25.4864 15.0745 26.3837 14.8489 27.1706 14.3977C27.9575 13.9466 28.5718 13.3203 29.0136 12.519C29.4554 11.7176 29.6763 10.8052 29.6763 9.78167C29.6763 8.75813 29.4554 7.84232 29.0136 7.03426C28.5718 6.2262 27.954 5.59322 27.1602 5.13532C26.3664 4.67742 25.4864 4.44846 24.4786 4.44846C23.4708 4.44846 22.57 4.67742 21.7762 5.13532C20.9824 5.59322 20.3611 6.2262 19.9124 7.03426C19.4638 7.84232 19.2394 8.75813 19.2394 9.78167C19.2394 10.8052 19.4638 11.7176 19.9124 12.519ZM26.9635 9.78167C26.9635 10.6975 26.7358 11.4315 26.2802 11.9836C25.8246 12.5358 25.2171 12.8119 24.4579 12.8119C23.9609 12.8119 23.526 12.6873 23.1532 12.4382C22.7805 12.189 22.4872 11.8355 22.2732 11.3776C22.0592 10.9197 21.9522 10.4012 21.9522 9.78167C21.9522 9.16216 22.0592 8.62345 22.2732 8.16555C22.4872 7.70765 22.7805 7.35075 23.1532 7.09487C23.526 6.83898 23.9816 6.71104 24.4786 6.71104C24.9756 6.71104 25.4104 6.83561 25.7832 7.08476C26.1559 7.33392 26.4458 7.69081 26.6529 8.15545C26.86 8.62008 26.9635 9.16216 26.9635 9.78167Z" fill="#FF630F"/>
<path d="M34.5634 20.5895V2.93335H31.7678V20.5895H34.5634Z" fill="#FF630F"/>
<path fill-rule="evenodd" clip-rule="evenodd" d="M44.3506 6.10868H43.2072V10.9416H44.3506V13.0984H36V10.9416H37.1433V6.10868H36V3.95185H44.3506V6.10868ZM39.573 6.10868H40.8184V10.9416H39.573V6.10868Z" fill="#FF630F"/>
<path d="M38.6542 19.0696L42.901 16.0541C43.3093 15.7612 43.5713 15.5315 43.687 15.3651C43.8027 15.1986 43.8606 15.0222 43.8606 14.8358V14.1568H46.5556V14.8159C46.5556 15.0023 46.6203 15.182 46.7496 15.3551C46.8789 15.5282 47.1477 15.7612 47.556 16.0541L51.8028 19.0696L50.3328 21.0667L46.086 18.0511C45.7572 17.8172 45.471 17.5807 45.2275 17.3416C44.9853 17.5807 44.6998 17.8172 44.371 18.0511L40.1242 21.0667L38.6542 19.0696Z" fill="#FF630F"/>
<path d="M43.9831 9.54363H45.4735V13.398H48.0256V3.29282H45.4735V7.42674H43.9831V9.54363Z" fill="#FF630F"/>
<path d="M51.5578 2.93335V14.9956H48.9853V2.93335H51.5578Z" fill="#FF630F"/>
<path d="M70 16.0733H53.7183V18.2035H70V16.0733Z" fill="#FF630F"/>
<path d="M59.4319 8.93326L54.8171 12.2666L56.2954 14.2193L60.8703 10.9057C61.2632 10.6258 61.5961 10.3468 61.8691 10.0685C62.1421 10.3468 62.4751 10.6258 62.868 10.9057L67.4629 14.2193L68.9212 12.2666L64.3064 8.91353C63.9601 8.67685 63.7171 8.48618 63.5772 8.34154C63.4374 8.19689 63.3475 8.06212 63.3075 7.9372C63.2892 7.87991 63.2751 7.81088 63.2652 7.73009H68.2819V5.58018H63.2076V3.41054H60.5306V5.58018H55.4763V7.73009H60.4731C60.4632 7.81088 60.4491 7.87991 60.4308 7.9372C60.3908 8.06212 60.2976 8.19689 60.1511 8.34154C60.0046 8.48618 59.7649 8.68342 59.4319 8.93326Z" fill="#FF630F"/>
</svg>
