<svg width="72" height="24" viewBox="0 0 72 24" fill="none" xmlns="http://www.w3.org/2000/svg">
<path d="M17.7299 3V15.299H15.0787V3H17.7299ZM12.8262 7.66445V9.87708H10.1551V7.66445H12.8262ZM14.2614 3.3588V13.6645H11.6501V3.3588H14.2614ZM10.5937 4.29568V6.52824H2.3611V4.29568H10.5937ZM2.08203 11.1927C6.0023 11.1927 8.91924 11.0731 10.8329 10.8339L10.9724 12.8671C9.7498 13.1063 8.40761 13.2658 6.94582 13.3455C5.49731 13.412 3.96907 13.4452 2.3611 13.4452L2.08203 11.1927ZM5.90927 5.8505V11.7309H3.39765V5.8505H5.90927ZM9.51725 5.8505V11.7309H7.00562V5.8505H9.51725ZM12.4275 14.3621V14.8007C12.4275 15.8372 12.1618 16.7807 11.6302 17.6312C11.1119 18.4817 10.3279 19.1993 9.27804 19.7841C8.22821 20.3688 6.93253 20.7542 5.391 20.9402L4.39432 18.8073C5.68336 18.6611 6.75313 18.3821 7.60363 17.9701C8.45412 17.5449 9.07871 17.0598 9.47738 16.5149C9.87605 15.9701 10.0754 15.3987 10.0754 14.8007V14.3621H12.4275ZM12.8461 14.3621V14.8007C12.8461 15.3987 13.0388 15.9701 13.4242 16.5149C13.8096 17.0598 14.4275 17.5449 15.278 17.9701C16.1285 18.3821 17.1983 18.6611 18.4873 18.8073L17.5106 20.9402C15.9824 20.7542 14.6867 20.3688 13.6236 19.7841C12.5737 19.1993 11.783 18.4817 11.2515 17.6312C10.7332 16.7807 10.4741 15.8372 10.4741 14.8007V14.3621H12.8461Z" fill="currentColor"/>
<path d="M34.2552 12.1495V14.3621H21.5376V12.1495H34.2552ZM35.9695 16.7342V18.9867H19.6838V16.7342H35.9695ZM34.1357 4.25581V6.46844H24.3881V12.7475H21.5376V4.25581H34.1357ZM33.717 8.20266V10.3555H23.5111V8.20266H33.717Z" fill="currentColor"/>
<path d="M38.8604 14.5615C40.0962 14.5615 41.1926 14.5349 42.1494 14.4817C43.1062 14.4286 44.0896 14.3156 45.0996 14.1429L45.3388 16.3754C44.2889 16.5615 43.2657 16.6877 42.269 16.7542C41.2723 16.8073 40.1361 16.8339 38.8604 16.8339H37.5647V14.5615H38.8604ZM43.8836 4.71429V11.7309H40.2557V15.4385H37.5647V9.57807H41.1926V6.92691H37.5248V4.71429H43.8836ZM52.5747 3V21H49.9235V3H52.5747ZM47.3521 9.0598V11.3322H44.5813V9.0598H47.3521ZM48.8471 3.299V20.1429H46.2557V3.299H48.8471Z" fill="currentColor"/>
<path d="M59.5718 3.49834C60.4887 3.49834 61.3127 3.67774 62.0436 4.03654C62.7877 4.38206 63.3658 4.87375 63.7778 5.51163C64.203 6.13621 64.4156 6.84053 64.4156 7.62458C64.4156 8.42193 64.203 9.13289 63.7778 9.75747C63.3658 10.3821 62.7877 10.8738 62.0436 11.2326C61.3127 11.5781 60.4887 11.7508 59.5718 11.7508C58.6681 11.7508 57.8442 11.5781 57.1 11.2326C56.3691 10.8738 55.7911 10.3821 55.3658 9.75747C54.9406 9.13289 54.7279 8.42857 54.7279 7.64452C54.7279 6.86047 54.9406 6.1495 55.3658 5.51163C55.7911 4.87375 56.3691 4.38206 57.1 4.03654C57.8442 3.67774 58.6681 3.49834 59.5718 3.49834ZM59.5718 5.75083C59.1598 5.75083 58.7944 5.82392 58.4754 5.9701C58.1565 6.11628 57.904 6.33555 57.718 6.62791C57.5319 6.90698 57.4389 7.24585 57.4389 7.64452C57.4389 8.04319 57.5319 8.38206 57.718 8.66113C57.904 8.9402 58.1565 9.15282 58.4754 9.299C58.7944 9.44518 59.1598 9.51827 59.5718 9.51827C59.9838 9.51827 60.3492 9.44518 60.6681 9.299C61.0004 9.15282 61.2529 8.9402 61.4256 8.66113C61.6117 8.38206 61.7047 8.04319 61.7047 7.64452C61.7047 7.24585 61.6117 6.90698 61.4256 6.62791C61.2529 6.33555 61.007 6.11628 60.6881 5.9701C60.3691 5.82392 59.997 5.75083 59.5718 5.75083ZM69.5186 3V11.9502H66.708V3H69.5186ZM69.5186 12.6678V17.711H60.1897V19.7841H57.4588V15.7176H66.7279V14.8007H57.419V12.6678H69.5186ZM69.9173 18.6678V20.8206H57.4588V18.6678H69.9173Z" fill="currentColor"/>
</svg>
