<svg width="24" height="24" viewBox="0 0 24 24" fill="none" xmlns="http://www.w3.org/2000/svg">
<mask id="mask0_2_1800" style="mask-type:alpha" maskUnits="userSpaceOnUse" x="0" y="0" width="24" height="24">
<rect width="24" height="24" fill="#D9D9D9"/>
</mask>
<g mask="url(#mask0_2_1800)">
<path d="M19.75 4.25V9.74995H18.25V6.82878L13.698 11.3461C14.0211 11.8192 14.2772 12.3203 14.4663 12.8495C14.6554 13.3787 14.75 13.9288 14.75 14.5C14.75 15.9636 14.2409 17.2045 13.2229 18.2227C12.2049 19.2409 10.9642 19.75 9.50085 19.75C8.03745 19.75 6.79646 19.241 5.77787 18.223C4.75929 17.2049 4.25 15.9642 4.25 14.5009C4.25 13.0375 4.75908 11.7965 5.77725 10.7779C6.79543 9.75929 8.03634 9.25 9.49997 9.25C10.0628 9.25 10.6093 9.34198 11.1394 9.52595C11.6695 9.70993 12.166 9.96859 12.6288 10.3019L17.1808 5.74995H14.25V4.25H19.75ZM9.49842 10.75C8.46227 10.75 7.57849 11.1162 6.84707 11.8486C6.11566 12.5811 5.74995 13.4654 5.74995 14.5015C5.74995 15.5377 6.11618 16.4215 6.84863 17.1529C7.58108 17.8843 8.46538 18.25 9.50153 18.25C10.5377 18.25 11.4215 17.8838 12.1529 17.1513C12.8843 16.4189 13.25 15.5346 13.25 14.4984C13.25 13.4623 12.8838 12.5785 12.1513 11.8471C11.4189 11.1157 10.5346 10.75 9.49842 10.75Z" fill="#5AB0FF"/>
</g>
</svg>
