<svg width="24" height="24" viewBox="0 0 24 24" fill="none" xmlns="http://www.w3.org/2000/svg">
<mask id="mask0_44_2197" style="mask-type:alpha" maskUnits="userSpaceOnUse" x="0" y="0" width="24" height="24">
<rect width="24" height="24" fill="#D9D9D9"/>
</mask>
<g mask="url(#mask0_44_2197)">
<path d="M11.5 19.0193C11.0875 19.0193 10.7344 18.8724 10.4406 18.5787C10.1469 18.285 10 17.9318 10 17.5194C10 17.1069 10.1469 16.7537 10.4406 16.46C10.7344 16.1663 11.0875 16.0194 11.5 16.0194C11.9125 16.0194 12.2656 16.1663 12.5593 16.46C12.8531 16.7537 13 17.1069 13 17.5194C13 17.9318 12.8531 18.285 12.5593 18.5787C12.2656 18.8724 11.9125 19.0193 11.5 19.0193ZM11.5 13.2501C11.0875 13.2501 10.7344 13.1032 10.4406 12.8095C10.1469 12.5157 10 12.1626 10 11.7501C10 11.3376 10.1469 10.9845 10.4406 10.6908C10.7344 10.397 11.0875 10.2502 11.5 10.2502C11.9125 10.2502 12.2656 10.397 12.5593 10.6908C12.8531 10.9845 13 11.3376 13 11.7501C13 12.1626 12.8531 12.5157 12.5593 12.8095C12.2656 13.1032 11.9125 13.2501 11.5 13.2501ZM11.5 7.48088C11.0875 7.48088 10.7344 7.33401 10.4406 7.04026C10.1469 6.74652 10 6.39341 10 5.98091C10 5.56842 10.1469 5.21531 10.4406 4.92156C10.7344 4.62782 11.0875 4.48096 11.5 4.48096C11.9125 4.48096 12.2656 4.62782 12.5593 4.92156C12.8531 5.21531 13 5.56842 13 5.98091C13 6.39341 12.8531 6.74652 12.5593 7.04026C12.2656 7.33401 11.9125 7.48088 11.5 7.48088Z" fill="#1C1B1F"/>
</g>
</svg>
