<svg width="20" height="21" viewBox="0 0 20 21" fill="none" xmlns="http://www.w3.org/2000/svg">
<mask id="mask0_27_2462" style="mask-type:alpha" maskUnits="userSpaceOnUse" x="0" y="0" width="20" height="21">
<rect y="0.395508" width="20" height="20" fill="#D9D9D9"/>
</mask>
<g mask="url(#mask0_27_2462)">
<path d="M11.4019 18.1921C11.2609 18.2626 11.1233 18.276 10.9892 18.2322C10.8552 18.1884 10.7529 18.096 10.6824 17.9549L9.35224 15.2947C9.28172 15.1537 9.26837 15.0161 9.31217 14.882C9.35597 14.748 9.44838 14.6457 9.5894 14.5751C9.71653 14.5046 9.85194 14.4926 9.99563 14.5391C10.1393 14.5856 10.2464 14.6793 10.3169 14.8203L11.6471 17.4726C11.7176 17.6136 11.7296 17.7512 11.6831 17.8852C11.6367 18.0193 11.5429 18.1216 11.4019 18.1921ZM15.5349 18.1921C15.3939 18.2626 15.2529 18.276 15.1118 18.2322C14.9708 18.1884 14.8651 18.096 14.7946 17.9549L13.4644 15.2947C13.3939 15.1537 13.384 15.0161 13.4348 14.882C13.4855 14.748 13.5814 14.6457 13.7224 14.5751C13.8634 14.5046 14.0023 14.4926 14.1391 14.5391C14.2758 14.5856 14.3795 14.6793 14.45 14.8203L15.7801 17.4726C15.8506 17.6136 15.8626 17.7512 15.8162 17.8852C15.7697 18.0193 15.6759 18.1216 15.5349 18.1921ZM7.27688 18.1921C7.13587 18.2626 6.99352 18.276 6.84982 18.2322C6.70613 18.1884 6.59902 18.096 6.52851 17.9549L5.19838 15.2947C5.12787 15.1537 5.11932 15.0161 5.17274 14.882C5.22615 14.748 5.32338 14.6457 5.4644 14.5751C5.60542 14.5046 5.74297 14.4926 5.87705 14.5391C6.01113 14.5856 6.11342 14.6793 6.18392 14.8203L7.51407 17.4726C7.58458 17.6136 7.59794 17.7512 7.55413 17.8852C7.51033 18.0193 7.41791 18.1216 7.27688 18.1921ZM6.14549 13.1873C5.01835 13.1873 4.08032 12.7816 3.3314 11.9701C2.58247 11.1587 2.20801 10.1825 2.20801 9.04148C2.20801 8.00944 2.56324 7.1267 3.2737 6.39325C3.98417 5.65982 4.86611 5.23167 5.91953 5.1088C6.32017 4.33637 6.8856 3.72579 7.61584 3.27707C8.34608 2.82836 9.14068 2.604 9.99965 2.604C11.1535 2.604 12.1519 2.98114 12.9948 3.7354C13.8378 4.48968 14.3431 5.44053 14.5109 6.58796C15.4735 6.60506 16.2609 6.94614 16.873 7.61121C17.4852 8.27627 17.7913 9.03775 17.7913 9.89565C17.7913 10.8091 17.4711 11.5861 16.8306 12.2266C16.1901 12.8671 15.4131 13.1873 14.4997 13.1873H6.14549ZM6.24965 12.104H14.4997C15.1086 12.104 15.6289 11.8882 16.0606 11.4566C16.4922 11.0249 16.708 10.5046 16.708 9.89565C16.708 9.28668 16.4922 8.76637 16.0606 8.33473C15.6289 7.90311 15.1086 7.6873 14.4997 7.6873H13.6038L13.4163 6.64565C13.3052 5.79522 12.9241 5.08955 12.2729 4.52865C11.6217 3.96775 10.864 3.6873 9.99965 3.6873C9.31803 3.6873 8.69597 3.87293 8.13347 4.24419C7.57095 4.61546 7.1428 5.11146 6.84901 5.73219L6.61342 6.1873H6.24965C5.427 6.1873 4.72828 6.47469 4.15349 7.04948C3.5787 7.62428 3.2913 8.323 3.2913 9.14565C3.2913 9.9683 3.5787 10.667 4.15349 11.2418C4.72828 11.8166 5.427 12.104 6.24965 12.104Z" fill="#333333"/>
</g>
</svg>
