<svg width="20" height="21" viewBox="0 0 20 21" fill="none" xmlns="http://www.w3.org/2000/svg">
<mask id="mask0_27_2461" style="mask-type:alpha" maskUnits="userSpaceOnUse" x="0" y="0" width="20" height="21">
<rect y="0.395508" width="20" height="20" fill="#D9D9D9"/>
</mask>
<g mask="url(#mask0_27_2461)">
<path d="M9.45801 18.1873V14.4613L6.58299 17.3363L5.80897 16.5623L9.45801 12.9341V10.9373H7.46119L3.81215 14.5863L3.03813 13.8123L5.93399 10.9373H2.20801V9.854H5.93399L3.05897 6.97898L3.83299 6.20496L7.46119 9.854H9.45801V7.85719L5.80897 4.22898L6.58299 3.45496L9.45801 6.32998V2.604H10.5413V6.32998L13.4163 3.43413L14.1903 4.20815L10.5413 7.85719V9.854H12.5381L16.1663 6.20496L16.9403 6.97898L14.0653 9.854H17.7913V10.9373H14.0653L16.9612 13.8123L16.1872 14.5863L12.5381 10.9373H10.5413V12.9341L14.1903 16.5832L13.4163 17.3572L10.5413 14.4613V18.1873H9.45801Z" fill="#333333"/>
</g>
</svg>
