<svg width="20" height="21" viewBox="0 0 20 21" fill="none" xmlns="http://www.w3.org/2000/svg">
<mask id="mask0_27_2464" style="mask-type:alpha" maskUnits="userSpaceOnUse" x="0" y="0" width="20" height="21">
<rect y="0.395508" width="20" height="20" fill="#D9D9D9"/>
</mask>
<g mask="url(#mask0_27_2464)">
<path d="M9.45801 3.84757V1.604H10.5413V3.84757H9.45801ZM9.45801 19.1873V16.9437H10.5413V19.1873H9.45801ZM16.5477 10.9373V9.854H18.7913V10.9373H16.5477ZM1.20801 10.9373V9.854H3.45157V10.9373H1.20801ZM14.9644 6.20494L14.1904 5.43092L15.8122 3.76265L16.6327 4.58315L14.9644 6.20494ZM4.20799 17.0078L3.38749 16.1873L5.03492 14.5864L5.80895 15.3604L4.20799 17.0078ZM15.8122 17.0078L14.1904 15.3604L14.9644 14.5864L16.6327 16.1873L15.8122 17.0078ZM5.03492 6.20494L3.38749 4.58315L4.20799 3.76265L5.80895 5.43092L5.03492 6.20494ZM10.0015 14.979C8.72892 14.979 7.64657 14.5335 6.75449 13.6427C5.86239 12.7519 5.41634 11.6702 5.41634 10.3975C5.41634 9.12492 5.86176 8.04257 6.75259 7.15048C7.64342 6.25839 8.72515 5.81234 9.99776 5.81234C11.2704 5.81234 12.3527 6.25775 13.2448 7.14859C14.1369 8.03942 14.583 9.12114 14.583 10.3938C14.583 11.6664 14.1376 12.7487 13.2467 13.6408C12.3559 14.5329 11.2742 14.979 10.0015 14.979ZM9.99451 13.9165C10.9702 13.9165 11.7983 13.5727 12.4788 12.8852C13.1594 12.1977 13.4997 11.3662 13.4997 10.3905C13.4997 9.41487 13.1611 8.58848 12.484 7.91134C11.8068 7.23421 10.9804 6.89565 10.0048 6.89565C9.02915 6.89565 8.20104 7.23421 7.52049 7.91134C6.83993 8.58848 6.49965 9.41487 6.49965 10.3905C6.49965 11.3662 6.83822 12.1977 7.51534 12.8852C8.19248 13.5727 9.01887 13.9165 9.99451 13.9165Z" fill="#333333"/>
</g>
</svg>
