<svg width="24" height="24" viewBox="0 0 24 24" fill="none" xmlns="http://www.w3.org/2000/svg">
<mask id="mask0_449_2883" style="mask-type:alpha" maskUnits="userSpaceOnUse" x="0" y="0" width="24" height="24">
<rect width="24" height="24" fill="#D9D9D9"/>
</mask>
<g mask="url(#mask0_449_2883)">
<path d="M5.3077 20.5C4.80898 20.5 4.38302 20.3234 4.02982 19.9702C3.67661 19.617 3.5 19.191 3.5 18.6923V5.30773C3.5 4.80902 3.67661 4.38306 4.02982 4.02986C4.38302 3.67664 4.80898 3.50003 5.3077 3.50003H18.6923C19.191 3.50003 19.6169 3.67664 19.9701 4.02986C20.3233 4.38306 20.5 4.80902 20.5 5.30773V18.6923C20.5 19.191 20.3233 19.617 19.9701 19.9702C19.6169 20.3234 19.191 20.5 18.6923 20.5H5.3077ZM7.99998 19V5.00001H5.3077C5.23077 5.00001 5.16024 5.03206 5.09612 5.09616C5.03202 5.16027 4.99997 5.2308 4.99997 5.30773V18.6923C4.99997 18.7692 5.03202 18.8397 5.09612 18.9039C5.16024 18.968 5.23077 19 5.3077 19H7.99998ZM9.49995 19H18.6923C18.7692 19 18.8397 18.968 18.9038 18.9039C18.9679 18.8397 19 18.7692 19 18.6923V5.30773C19 5.2308 18.9679 5.16027 18.9038 5.09616C18.8397 5.03206 18.7692 5.00001 18.6923 5.00001H9.49995V19Z" fill="#FF630F"/>
</g>
</svg>
