<svg width="24" height="24" viewBox="0 0 24 24" fill="none" xmlns="http://www.w3.org/2000/svg">
<mask id="mask0_2_765" style="mask-type:alpha" maskUnits="userSpaceOnUse" x="0" y="0" width="24" height="24">
<rect width="24" height="24" fill="#D9D9D9"/>
</mask>
<g mask="url(#mask0_2_765)">
<path d="M9.49998 21.5C8.65128 21.5 7.9391 21.2121 7.36345 20.6365C6.78782 20.0609 6.5 19.3487 6.5 18.5C6.5 18.273 6.50321 18.0875 6.50962 17.9432C6.51603 17.799 6.4782 17.6859 6.39615 17.6038C6.3141 17.5218 6.20096 17.4807 6.05673 17.4807H5.49998C4.65128 17.4807 3.9391 17.1961 3.36345 16.6269C2.78782 16.0576 2.5 15.3487 2.5 14.5C2.5 13.6513 2.78782 12.9391 3.36345 12.3635C3.9391 11.7878 4.65128 11.5 5.49998 11.5C5.82561 11.5 6.12753 11.542 6.40573 11.626C6.68393 11.7099 6.93585 11.8359 7.1615 12.0039C7.25125 12.0744 7.35543 12.1096 7.47403 12.1096C7.59263 12.1096 7.69359 12.068 7.77693 11.9846L11.9461 7.81538C12.0295 7.73204 12.0776 7.62627 12.0904 7.49805C12.1032 7.36983 12.0744 7.25765 12.0039 7.1615C11.8423 6.92945 11.718 6.67593 11.6308 6.40093C11.5436 6.12593 11.5 5.82561 11.5 5.49998C11.5 4.65128 11.7878 3.9391 12.3635 3.36345C12.9391 2.78782 13.6513 2.5 14.5 2.5C15.3487 2.5 16.0609 2.78782 16.6365 3.36345C17.2121 3.9391 17.5 4.65128 17.5 5.49998C17.5 5.72691 17.4967 5.91249 17.4903 6.05673C17.4839 6.20096 17.5218 6.3141 17.6038 6.39615C17.6859 6.4782 17.799 6.51603 17.9432 6.50963C18.0875 6.50321 18.273 6.5 18.5 6.5C19.3487 6.5 20.0609 6.78782 20.6365 7.36345C21.2121 7.9391 21.5 8.65128 21.5 9.49998C21.5 10.3487 21.2121 11.0609 20.6365 11.6365C20.0609 12.2121 19.3487 12.5 18.5 12.5C18.1743 12.5 17.874 12.4564 17.599 12.3692C17.324 12.282 17.0705 12.1576 16.8385 11.9961C16.7423 11.932 16.6333 11.9048 16.5115 11.9144C16.3897 11.924 16.2871 11.9705 16.2038 12.0538L12.0538 16.2038C11.9705 16.2871 11.9224 16.3849 11.9096 16.4971C11.8967 16.6093 11.9192 16.7167 11.9769 16.8192C12.132 17.0513 12.258 17.308 12.3548 17.5894C12.4516 17.8708 12.5 18.1743 12.5 18.5C12.5 19.3487 12.2121 20.0609 11.6365 20.6365C11.0609 21.2121 10.3487 21.5 9.49998 21.5ZM9.49998 20C9.93331 20 10.2916 19.8583 10.575 19.575C10.8583 19.2916 11 18.9333 11 18.5C11 18.35 10.9791 18.2041 10.9375 18.0625C10.8958 17.9208 10.8333 17.7833 10.75 17.65C10.4795 17.2564 10.366 16.8288 10.4096 16.3673C10.4532 15.9057 10.65 15.5 11 15.15L15.15 11C15.5 10.65 15.9057 10.4548 16.3673 10.4144C16.8288 10.374 17.2564 10.4859 17.65 10.75C17.7833 10.8333 17.9208 10.8958 18.0625 10.9375C18.2041 10.9791 18.35 11 18.5 11C18.9333 11 19.2916 10.8583 19.575 10.575C19.8583 10.2916 20 9.93331 20 9.49998C20 9.06664 19.8583 8.70831 19.575 8.42498C19.2916 8.14164 18.9333 7.99998 18.5 7.99998C17.9679 7.99998 17.5676 7.966 17.299 7.89805C17.0304 7.8301 16.7807 7.68074 16.55 7.44998C16.3192 7.21921 16.1699 6.96953 16.1019 6.70093C16.034 6.43234 16 6.03203 16 5.49998C16 5.06664 15.8583 4.70831 15.575 4.42498C15.2916 4.14164 14.9333 3.99998 14.5 3.99998C14.0666 3.99998 13.7083 4.14164 13.425 4.42498C13.1416 4.70831 13 5.06664 13 5.49998C13 5.67049 13.0182 5.82145 13.0548 5.95285C13.0913 6.08427 13.1564 6.21664 13.25 6.34998C13.5205 6.74356 13.634 7.17113 13.5904 7.63268C13.5468 8.09421 13.35 8.49998 13 8.84998L8.84998 13C8.49998 13.35 8.09421 13.5452 7.63268 13.5856C7.17113 13.6259 6.74356 13.5141 6.34998 13.25C6.21664 13.1666 6.07914 13.1041 5.93748 13.0625C5.79581 13.0208 5.64998 13 5.49998 13C5.06664 13 4.70831 13.1416 4.42498 13.425C4.14164 13.7083 3.99998 14.0666 3.99998 14.5C3.99998 14.9333 4.14164 15.2884 4.42498 15.5654C4.70831 15.8423 5.06664 15.9808 5.49998 15.9808C6.03203 15.9808 6.43234 16.0179 6.70092 16.0923C6.96952 16.1666 7.21921 16.3192 7.44998 16.55C7.68074 16.7807 7.8301 17.0336 7.89805 17.3086C7.966 17.5836 7.99998 17.9872 7.99998 18.5192C7.99998 18.9525 8.14164 19.3077 8.42498 19.5846C8.70831 19.8615 9.06664 20 9.49998 20Z" fill="#333333"/>
</g>
</svg>
